# xmcd
#
# Track frame offsets:
#	150
#	14124
#	26893
#	42323
#	56872
#	70554
#	82273
#	95889
#	109919
#	124144
#	137382
#	150119
#	165277
#	179824
#	193618
#	208487
#
# Disc length: 2954 seconds
#
# Revision: 1
# Processed by: cddbd v1.5.2PL0 Copyright (c) Steve Scherf et al.
# Submitted via: audiograbber 1.83.01
#
DISCID=eb0b8810
DTITLE=Various Artist - 1920's Blues Classics Vol 5 -Jail House Blues
DYEAR=2007
DGENRE=Blues
TTITLE0=Texas Alexander - Range in My Kitchen Blues
TTITLE1=Blind Lemon Jefferson - One Dime Blues
TTITLE2=Rube Lacy - Mississippi Jail House Groan
TTITLE3=Blind Joe Reynolds - Nehi Mama Blues
TTITLE4=Ma Rainey - Deep Moaning Blues
TTITLE5=Crying Sam Collins - Jail House Blues
TTITLE6=Banjo Joe (Gus Cannon) - Madison Street Rag
TTITLE7=Blind Blake - Seaboard Stomp
TTITLE8=Mississippi Sheiks - The New Shake That Thing
TTITLE9=Blind Blake - Low Down Jail House
TTITLE10=Ida Cox - Cold and Blue
TTITLE11=Elzadie Robinson - The Santa Claus Crave
TTITLE12=Blind Blake - Ain't Gonna Do that No More
TTITLE13=Blind Willie McTell and Mary Willis - Talkin' to You Wimmen about the 
TTITLE13=Blues
TTITLE14=Blind Willie McTell and Mary Willis - Merciful Blues
TTITLE15=Blind Joe Reynolds - Outside Woman Blues
EXTD=CD comes with 2008 Jail House Blues Calendar
EXTT0=
EXTT1=
EXTT2=
EXTT3=
EXTT4=
EXTT5=
EXTT6=
EXTT7=
EXTT8=
EXTT9=
EXTT10=
EXTT11=
EXTT12=
EXTT13=
EXTT14=
EXTT15=
PLAYORDER=
